<?xml version="1.0" standalone="no"?>
<!DOCTYPE svg PUBLIC "-//W3C//DTD SVG 20010904//EN"
 "http://www.w3.org/TR/2001/REC-SVG-20010904/DTD/svg10.dtd">
<svg version="1.0" xmlns="http://www.w3.org/2000/svg"
 width="167.000000pt" height="167.000000pt" viewBox="0 0 167.000000 167.000000"
 preserveAspectRatio="xMidYMid meet">
<metadata>
Created by potrace 1.11, written by Peter Selinger 2001-2013
</metadata>
<g transform="translate(0.000000,167.000000) scale(0.100000,-0.100000)"
fill="#000000" stroke="none">
<path d="M175 1661 c-69 -17 -116 -55 -151 -121 -18 -33 -19 -70 -19 -705 0
-667 0 -670 22 -710 24 -46 54 -75 103 -101 33 -18 70 -19 705 -19 667 0 670
0 710 22 46 24 75 54 101 103 18 33 19 70 19 705 0 635 -1 672 -19 705 -26 49
-55 79 -101 103 -40 22 -45 22 -690 24 -357 1 -663 -2 -680 -6z m289 -333 c7
-44 59 -1019 54 -1022 -5 -4 -322 15 -327 19 -2 3 4 152 13 332 9 180 16 347
16 370 l0 42 -54 6 c-52 7 -54 8 -46 30 5 13 16 73 26 134 l17 110 86 4 c47 1
114 4 148 5 l62 2 5 -32z m986 -161 l0 -183 -120 -59 c-66 -33 -120 -62 -120
-66 0 -3 35 -14 78 -23 243 -54 257 -68 256 -246 -1 -188 -23 -231 -138 -270
-131 -43 -252 -60 -473 -67 l-213 -6 0 172 0 171 183 1 c100 1 211 4 247 8 59
5 65 8 68 31 6 35 -15 97 -36 105 -9 4 -90 9 -179 12 l-163 6 0 61 0 61 178
90 177 90 -190 6 c-104 4 -211 7 -236 8 l-47 1 -4 123 c-2 67 -3 124 -1 126 7
9 371 28 551 30 l182 1 0 -183z"/>
</g>
</svg>
